<svg width="1392" height="1269" viewBox="0 0 1392 1269" fill="none" xmlns="http://www.w3.org/2000/svg">
<g opacity="0.6">
<g opacity="0.6">
<path opacity="0.6" d="M1058.84 510.961L1085.29 484.501C1141.41 540.639 1141.41 631.46 1085.29 687.598C1047.75 725.143 994.49 737.657 946.589 724.785L956.24 688.671C991.63 698.325 1030.95 689.028 1058.84 661.138C1100.3 619.303 1100.3 552.438 1058.84 510.961Z" fill="#EBEBEB"/>
<path opacity="0.6" d="M882.601 484.5C909.411 457.683 945.874 442.665 984.123 442.665C1022.02 442.665 1058.84 457.683 1085.65 484.5L1059.19 510.96C1017.73 469.482 950.521 469.482 909.411 510.96L882.601 484.5Z" fill="#F5F5F5"/>
<path opacity="0.6" d="M882.601 484.501L909.054 510.961C867.587 552.438 867.587 619.661 909.054 660.781C922.638 674.368 939.082 683.665 956.598 688.313L946.946 724.427C870.804 704.046 825.048 624.667 845.424 548.505C851.858 524.548 864.727 502.379 882.601 484.501Z" fill="#E0E0E0"/>
</g>
<g opacity="0.6">
<path opacity="0.6" d="M1176.44 378.303V434.441C1057.41 434.441 960.887 337.898 960.887 218.829C961.245 139.449 1004.5 69.7239 1068.84 32.5371L1097.08 81.166C1049.54 108.699 1017.37 160.188 1017.37 219.186C1017.37 307.147 1088.86 378.303 1176.44 378.303Z" fill="#EBEBEB"/>
<path opacity="0.6" d="M1392 219.187C1392 276.397 1369.12 331.105 1328.73 371.509C1288.33 411.914 1233.64 434.799 1176.44 434.799V378.661C1264.38 378.661 1335.52 307.505 1335.52 219.544H1392V219.187Z" fill="#F5F5F5"/>
<path opacity="0.6" d="M1392 219.187H1335.88C1335.88 131.226 1264.74 60.0701 1176.8 60.0701C1147.85 60.0701 1120.68 67.9366 1097.08 81.524L1068.84 32.5376C1171.08 -26.4607 1304.06 8.93824 1363.04 111.56C1381.99 144.098 1392 181.285 1392 219.187Z" fill="#E0E0E0"/>
</g>
</g>
<g opacity="0.5">
<g opacity="0.5">
<path opacity="0.5" d="M803.841 1107.54H899.287V905.87H803.841V1107.54Z" fill="#F5F5F5"/>
<path opacity="0.5" d="M688.586 1107.64H784.031V966.758H688.586V1107.64Z" fill="#E6E6E6"/>
<path opacity="0.5" d="M573.688 1107.68H669.133V1018.65H573.688V1107.68Z" fill="#F0F0F0"/>
</g>
<g opacity="0.5">
<path opacity="0.5" d="M1161.95 1107.64H1257.39V966.759H1161.95V1107.64Z" fill="#F5F5F5"/>
<path opacity="0.5" d="M1047.05 1107.7H1142.5V997.93H1047.05V1107.7Z" fill="#E6E6E6"/>
<path opacity="0.5" d="M932.154 1107.59H1027.6V871.24H932.154V1107.59Z" fill="#F0F0F0"/>
</g>
<g opacity="0.5">
<path opacity="0.5" d="M445.376 1107.71H540.821V887.094H445.376V1107.71Z" fill="#F5F5F5"/>
<path opacity="0.5" d="M330.478 1107.64H425.923V966.758H330.478V1107.64Z" fill="#E6E6E6"/>
<path opacity="0.5" d="M215.58 1107.44H311.026V921.867H215.58L215.58 1107.44Z" fill="#F0F0F0"/>
</g>
</g>
<g opacity="0.6">
<g opacity="0.6">
<path opacity="0.6" d="M0 24.3145C0 11.0845 11.0817 0 24.3082 0H783.223C796.45 0 807.532 11.0845 807.532 24.3145V102.621H0V24.3145Z" fill="#F0F0F0"/>
<path opacity="0.6" d="M196.968 71.5125C185.886 71.5125 176.592 62.5733 176.592 51.1312C176.592 39.6891 185.528 30.75 196.968 30.75C208.049 30.75 217.344 39.6891 217.344 51.1312C217.344 62.5733 208.049 71.5125 196.968 71.5125ZM196.968 34.6832C187.673 34.6832 180.166 42.1921 180.166 51.4888C180.166 60.7855 187.673 68.2944 196.968 68.2944C206.262 68.2944 213.769 60.7855 213.769 51.4888C213.769 42.1921 206.262 34.6832 196.968 34.6832Z" fill="white"/>
<path opacity="0.6" d="M131.55 71.5125C120.468 71.5125 111.174 62.5733 111.174 51.1312C111.174 39.6891 120.111 30.75 131.55 30.75C142.632 30.75 151.926 39.6891 151.926 51.1312C151.926 62.5733 142.989 71.5125 131.55 71.5125ZM131.55 34.6832C122.256 34.6832 114.749 42.1921 114.749 51.4888C114.749 60.7855 122.256 68.2944 131.55 68.2944C140.844 68.2944 148.351 60.7855 148.351 51.4888C148.351 42.1921 140.844 34.6832 131.55 34.6832Z" fill="white"/>
<path opacity="0.6" d="M66.49 71.5125C55.4083 71.5125 46.114 62.5733 46.114 51.1312C46.114 39.6891 55.0508 30.75 66.49 30.75C77.5716 30.75 86.8659 39.6891 86.8659 51.1312C86.8659 62.5733 77.5716 71.5125 66.49 71.5125ZM66.49 34.6832C57.1957 34.6832 49.6887 42.1921 49.6887 51.4888C49.6887 60.7855 57.1957 67.9368 66.49 67.9368C75.7843 67.9368 83.2912 60.4279 83.2912 51.1312C83.2912 41.8345 75.4268 34.6832 66.49 34.6832Z" fill="white"/>
<path opacity="0.6" d="M783.223 631.104H24.3082C11.0817 631.104 0 620.019 0 606.789V102.622H807.532V606.432C807.532 620.019 796.45 631.104 783.223 631.104Z" fill="#E0E0E0"/>
</g>
<g opacity="0.6">
<path opacity="0.6" d="M123.328 213.108C123.328 199.878 134.41 188.794 147.636 188.794H906.552C919.778 188.794 930.86 199.878 930.86 213.108V291.415H123.328V213.108Z" fill="#F5F5F5"/>
<path opacity="0.6" d="M320.296 260.665C309.214 260.665 299.92 251.726 299.92 240.284C299.92 228.841 308.857 219.902 320.296 219.902C331.378 219.902 340.672 228.841 340.672 240.284C340.672 251.726 331.378 260.665 320.296 260.665ZM320.296 223.836C311.002 223.836 303.495 231.344 303.495 240.641C303.495 249.938 311.002 257.447 320.296 257.447C329.59 257.447 337.097 249.938 337.097 240.641C336.74 230.987 329.233 223.836 320.296 223.836Z" fill="#E6E6E6"/>
<path opacity="0.6" d="M254.878 260.665C243.797 260.665 234.502 251.726 234.502 240.284C234.502 228.841 243.439 219.902 254.878 219.902C266.317 219.902 275.254 228.841 275.254 240.284C275.254 251.726 265.96 260.665 254.878 260.665ZM254.878 223.836C245.584 223.836 238.077 231.344 238.077 240.641C238.077 249.938 245.584 257.447 254.878 257.447C264.173 257.447 271.68 249.938 271.68 240.641C271.68 230.987 264.173 223.836 254.878 223.836Z" fill="#E6E6E6"/>
<path opacity="0.6" d="M189.461 260.665C178.379 260.665 169.085 251.726 169.085 240.284C169.085 228.841 178.022 219.902 189.461 219.902C200.542 219.902 209.837 228.841 209.837 240.284C209.837 251.726 200.9 260.665 189.461 260.665ZM189.461 223.836C180.166 223.836 172.659 231.344 172.659 240.641C172.659 249.938 180.166 257.447 189.461 257.447C198.755 257.447 206.262 249.938 206.262 240.641C206.262 230.987 198.755 223.836 189.461 223.836Z" fill="#E6E6E6"/>
<path opacity="0.6" d="M906.194 819.897H147.636C134.41 819.897 123.328 808.812 123.328 795.582V291.772H930.86V795.582C930.502 808.812 919.778 819.897 906.194 819.897Z" fill="#E6E6E6"/>
</g>
</g>
<path d="M693.14 1269C1075.95 1269 1386.28 1250.91 1386.28 1228.59C1386.28 1206.28 1075.95 1188.19 693.14 1188.19C310.329 1188.19 0 1206.28 0 1228.59C0 1250.91 310.329 1269 693.14 1269Z" fill="#F5F5F5"/>
<path d="M752.123 324.313C757.128 324.313 761.06 320.023 761.06 315.017L758.558 262.097C758.2 257.091 753.911 252.8 748.906 252.8H741.757L734.965 121.574C733.535 92.9685 708.869 69.3691 680.271 69.3691H268.82C240.222 69.3691 217.701 92.9685 219.131 121.574L225.566 253.515C221.991 254.946 219.131 258.521 219.489 262.812L225.923 389.39C226.281 393.681 229.14 397.257 233.072 398.687L260.598 957.562C262.028 986.167 286.693 1009.77 315.291 1009.77H726.743C755.341 1009.77 777.861 986.167 776.431 957.562L749.978 418.711H757.128C762.133 418.711 766.065 414.42 766.065 409.414L763.562 356.494C763.205 351.488 758.915 347.198 753.911 347.198H746.761L745.689 324.313H752.123V324.313Z" fill="#3BBABB"/>
<path d="M324.228 1009.77H735.679C764.277 1009.77 786.798 986.167 785.368 957.562L743.901 121.574C742.471 92.9685 717.806 69.3691 689.208 69.3691H277.757C249.159 69.3691 226.638 92.9685 228.068 121.574L269.535 957.919C270.607 986.525 295.273 1009.77 324.228 1009.77Z" fill="#3BBABB"/>
<path opacity="0.4" d="M324.228 1009.77H735.679C764.277 1009.77 786.798 986.167 785.368 957.562L743.901 121.574C742.471 92.9685 717.806 69.3691 689.208 69.3691H277.757C249.159 69.3691 226.638 92.9685 228.068 121.574L269.535 957.919C270.607 986.525 295.273 1009.77 324.228 1009.77Z" fill="#FAFAFA"/>
<path d="M290.268 937.18H762.133C766.78 937.18 769.997 933.604 769.997 928.956L731.39 151.966C731.033 147.318 727.458 143.742 722.811 143.742H250.946C246.299 143.742 243.082 147.318 243.082 151.966L281.331 928.956C282.046 933.247 285.979 937.18 290.268 937.18Z" fill="white"/>
<path opacity="0.7" d="M534.065 93.3262H434.687C431.112 93.3262 428.253 96.1867 428.61 99.7623C428.61 103.338 431.827 106.199 435.402 106.199H534.78C538.354 106.199 541.214 103.338 540.857 99.7623C540.857 96.1867 537.639 93.3262 534.065 93.3262Z" fill="#3BBABB"/>
<path opacity="0.6" d="M896.9 775.202H484.376L455.063 176.995H867.23L896.9 775.202Z" fill="#3BBABB"/>
<path d="M848.284 611.796C847.926 611.796 847.926 611.796 847.569 611.796L847.211 611.438L846.854 611.08C846.854 610.723 846.854 610.723 846.854 610.365C846.854 610.008 846.854 609.65 847.211 609.293C847.569 608.935 848.641 608.935 849.356 609.293C849.713 609.65 849.713 610.008 849.713 610.365C849.713 610.723 849.713 610.723 849.713 611.08C849.713 611.08 849.713 611.438 849.356 611.438L848.998 611.796C848.641 611.796 848.284 611.796 848.284 611.796Z" fill="white"/>
<path d="M852.216 723.713C852.216 722.998 852.931 722.283 853.646 722.283C854.361 722.283 855.076 722.998 855.076 723.713C855.076 724.429 854.361 725.144 853.646 725.144C852.931 725.144 852.216 724.429 852.216 723.713ZM851.858 712.271C851.858 711.556 852.573 710.841 853.288 710.841C854.003 710.841 854.718 711.556 854.718 712.271C854.718 712.986 854.003 713.702 853.288 713.702C852.573 713.702 851.858 712.986 851.858 712.271ZM851.143 700.829C851.143 700.114 851.858 699.399 852.573 699.399C853.288 699.399 854.003 700.114 854.003 700.829C854.003 701.544 853.288 702.259 852.573 702.259C851.858 702.259 851.143 701.544 851.143 700.829ZM850.786 689.745C850.786 689.03 851.501 688.314 852.216 688.314C852.931 688.314 853.646 689.03 853.646 689.745C853.646 690.46 852.931 691.175 852.216 691.175C851.501 691.175 850.786 690.46 850.786 689.745ZM850.071 678.303C850.071 677.587 850.786 676.872 851.501 676.872C852.216 676.872 852.931 677.587 852.931 678.303C852.931 679.018 852.216 679.733 851.501 679.733C850.786 679.733 850.071 679.018 850.071 678.303ZM849.713 666.86C849.713 666.145 850.428 665.43 851.143 665.43C851.858 665.43 852.573 666.145 852.573 666.86C852.573 667.576 851.858 668.291 851.143 668.291C850.071 668.291 849.713 667.576 849.713 666.86ZM848.998 655.776C848.998 655.061 849.713 654.346 850.428 654.346C851.143 654.346 851.858 655.061 851.858 655.776C851.858 656.491 851.143 657.206 850.428 657.206C849.713 657.206 848.998 656.491 848.998 655.776ZM848.284 644.334C848.284 643.619 848.998 642.904 849.713 642.904C850.428 642.904 851.143 643.619 851.143 644.334C851.143 645.049 850.428 645.764 849.713 645.764C848.998 645.764 848.641 645.049 848.284 644.334ZM847.926 632.892C847.926 632.177 848.641 631.462 849.356 631.462C850.071 631.462 850.786 632.177 850.786 632.892C850.786 633.607 850.071 634.322 849.356 634.322C848.641 634.322 847.926 633.607 847.926 632.892ZM847.211 621.807C847.211 621.092 847.926 620.377 848.641 620.377C849.356 620.377 850.071 621.092 850.071 621.807C850.071 622.522 849.356 623.237 848.641 623.237C847.926 623.237 847.211 622.522 847.211 621.807Z" fill="white"/>
<path d="M854.361 736.23C854.003 736.23 853.646 736.23 853.288 735.872C852.931 735.515 852.931 735.157 852.931 734.799C852.931 734.799 852.931 734.442 852.931 734.084C852.931 733.727 853.288 733.727 853.288 733.727L853.646 733.369C854.003 733.369 854.361 733.369 854.718 733.369C855.076 733.369 855.075 733.369 855.075 733.727L855.433 734.084C855.433 734.084 855.433 734.442 855.433 734.799C855.433 735.157 855.075 735.515 855.075 735.872L854.718 736.23C854.718 736.23 854.718 736.23 854.361 736.23Z" fill="white"/>
<path d="M840.777 734.799C840.777 734.084 841.492 733.369 842.206 733.369C842.921 733.369 843.636 734.084 843.636 734.799C843.636 735.515 842.921 736.23 842.206 736.23C841.492 736.23 840.777 735.515 840.777 734.799ZM828.98 734.799C828.98 734.084 829.695 733.369 830.41 733.369C831.125 733.369 831.84 734.084 831.84 734.799C831.84 735.515 831.125 736.23 830.41 736.23C829.695 736.23 828.98 735.515 828.98 734.799ZM816.826 734.799C816.826 734.084 817.541 733.369 818.256 733.369C818.971 733.369 819.686 734.084 819.686 734.799C819.686 735.515 818.971 736.23 818.256 736.23C817.541 736.23 816.826 735.515 816.826 734.799ZM805.029 734.799C805.029 734.084 805.744 733.369 806.459 733.369C807.174 733.369 807.889 734.084 807.889 734.799C807.889 735.515 807.174 736.23 806.459 736.23C805.744 736.23 805.029 735.515 805.029 734.799ZM792.875 734.799C792.875 734.084 793.59 733.369 794.305 733.369C795.02 733.369 795.735 734.084 795.735 734.799C795.735 735.515 795.02 736.23 794.305 736.23C793.59 736.23 792.875 735.515 792.875 734.799ZM781.079 734.799C781.079 734.084 781.794 733.369 782.508 733.369C783.223 733.369 783.938 734.084 783.938 734.799C783.938 735.515 783.223 736.23 782.508 736.23C781.436 736.23 781.079 735.515 781.079 734.799ZM768.925 734.799C768.925 734.084 769.639 733.369 770.354 733.369C771.069 733.369 771.784 734.084 771.784 734.799C771.784 735.515 771.069 736.23 770.354 736.23C769.639 736.23 768.925 735.515 768.925 734.799ZM756.77 734.799C756.77 734.084 757.485 733.369 758.2 733.369C758.915 733.369 759.63 734.084 759.63 734.799C759.63 735.515 758.915 736.23 758.2 736.23C757.485 736.23 756.77 735.515 756.77 734.799ZM744.974 734.799C744.974 734.084 745.689 733.369 746.404 733.369C747.119 733.369 747.834 734.084 747.834 734.799C747.834 735.515 747.119 736.23 746.404 736.23C745.689 736.23 744.974 735.515 744.974 734.799ZM732.82 734.799C732.82 734.084 733.535 733.369 734.25 733.369C734.965 733.369 735.68 734.084 735.68 734.799C735.68 735.515 734.965 736.23 734.25 736.23C733.535 736.23 732.82 735.515 732.82 734.799ZM721.023 734.799C721.023 734.084 721.738 733.369 722.453 733.369C723.168 733.369 723.883 734.084 723.883 734.799C723.883 735.515 723.168 736.23 722.453 736.23C721.738 736.23 721.023 735.515 721.023 734.799Z" fill="white"/>
<path d="M710.299 736.227C709.941 736.227 709.584 736.227 709.227 735.87L708.869 735.512C708.869 735.512 708.869 735.155 708.869 734.797C708.869 734.44 708.869 734.082 709.227 733.724C709.584 733.367 710.299 733.009 710.656 733.367C711.014 733.367 711.014 733.367 711.014 733.724C711.371 734.082 711.371 734.44 711.371 734.797C711.371 735.155 711.371 735.155 711.371 735.512C711.371 735.87 711.014 735.87 711.014 735.87L710.656 736.227C710.656 736.227 710.656 736.227 710.299 736.227Z" fill="white"/>
<path opacity="0.5" d="M875.094 336.469H462.928L455.063 176.995H867.23L875.094 336.469Z" fill="#3BBABB"/>
<path d="M855.79 592.129L854.718 581.759C880.099 580.687 904.764 570.317 922.995 551.009C933.72 539.567 941.584 526.337 945.874 512.034L955.883 515.61C951.236 531.343 942.656 546.003 930.86 558.518C910.841 579.257 883.673 590.699 855.79 592.129Z" fill="#263238"/>
<path opacity="0.5" d="M915.846 401.548C902.619 388.676 886.891 380.094 870.447 375.088L872.949 365.076C890.823 370.44 907.982 380.094 922.638 394.039C956.955 426.935 968.395 474.134 955.883 515.254L945.874 511.678C957.313 474.491 946.946 431.226 915.846 401.548Z" fill="#3BBABB"/>
<path d="M767.137 558.161C743.901 535.992 731.032 506.672 729.245 477.709H739.612C741.399 504.169 752.838 530.629 773.929 551.01C796.807 572.821 826.12 583.191 854.718 581.761L855.79 592.13C824.69 593.203 792.16 582.118 767.137 558.161Z" fill="#3BBABB"/>
<path opacity="0.7" d="M729.245 477.709C727.458 447.674 737.109 417.281 758.915 394.397C788.586 362.931 832.912 353.276 872.949 365.434L870.447 375.446C833.985 364.361 793.59 373.3 766.422 401.905C746.404 423.002 737.467 450.534 739.254 477.709H729.245Z" fill="white"/>
<path opacity="0.6" d="M909.854 539.284C943.079 505.218 941.03 449.319 905.276 414.43C869.523 379.542 813.605 378.876 780.38 412.942C747.155 447.009 749.204 502.908 784.958 537.796C820.711 572.684 876.629 573.351 909.854 539.284Z" fill="white"/>
<path d="M629.153 648.982L627.365 656.133C609.492 651.127 590.188 652.2 573.029 660.782C563.02 665.788 554.441 672.939 548.364 681.521L542.287 676.872C549.079 667.575 558.373 659.709 569.455 653.988C588.758 644.691 609.849 643.618 629.153 648.982Z" fill="#263238"/>
<path opacity="0.5" d="M544.074 761.973C550.151 773.415 559.088 783.069 569.097 789.863L565.165 795.941C554.083 788.075 544.431 777.706 537.639 765.191C521.553 735.513 524.77 701.187 542.644 676.872L548.721 681.52C532.277 703.689 529.418 735.155 544.074 761.973Z" fill="#3BBABB"/>
<path opacity="0.7" d="M682.774 692.248C693.855 712.629 695.643 734.798 690.28 754.464L683.131 752.319C688.136 734.083 686.348 714.059 676.339 695.466C665.615 675.8 647.741 661.855 627.723 656.134L629.51 648.982C651.316 655.419 670.977 670.436 682.774 692.248Z" fill="white"/>
<path d="M690.28 754.464C684.561 774.845 670.977 793.081 650.243 803.093C622.361 817.038 589.831 813.105 564.807 795.942L568.74 789.863C591.26 805.596 621.288 809.171 646.311 796.299C664.9 787.002 677.411 770.554 682.416 751.961L690.28 754.464Z" fill="#3BBABB"/>
<path opacity="0.6" d="M656.187 774.017C680.037 749.562 678.636 709.504 653.058 684.545C627.479 659.585 587.409 659.175 563.559 683.63C539.709 708.084 541.11 748.142 566.688 773.102C592.267 798.061 632.337 798.471 656.187 774.017Z" fill="white"/>
<path d="M718.163 197.018H703.864L668.475 249.937L709.226 303.215H723.525L682.416 249.937L718.163 197.018Z" fill="white"/>
<path d="M760.345 197.018H774.644L815.396 249.937L780.006 303.215H765.707L801.455 249.937L760.345 197.018Z" fill="white"/>
<g opacity="0.6">
<path opacity="0.6" d="M399.297 244.933H308.857C305.282 244.933 302.422 248.151 302.422 251.726L305.64 313.943C305.997 317.518 308.857 320.736 312.789 320.736H403.23C406.804 320.736 409.664 317.876 409.664 313.943L406.447 251.726C406.089 248.151 402.872 244.933 399.297 244.933ZM364.98 302.858H348.536L349.609 283.192C346.391 281.047 344.247 277.829 344.247 273.895C343.889 267.817 348.536 262.811 354.613 262.811C360.69 262.811 365.695 267.817 366.052 273.895C366.41 277.471 364.623 281.047 361.405 283.192L364.98 302.858Z" fill="#3BBABB"/>
<path opacity="0.2" d="M344.604 273.895C344.961 277.471 346.749 281.047 349.966 283.192L348.894 302.858H357.116L357.83 320.736H312.431C308.857 320.736 305.639 317.876 305.282 313.943L302.065 251.726C301.707 248.151 304.924 244.933 308.499 244.933H353.898L354.613 262.811C348.894 262.811 344.247 267.817 344.604 273.895Z" fill="black"/>
<path opacity="0.6" d="M391.075 240.642C387.858 240.642 384.998 238.139 384.641 234.563L384.284 228.485C383.569 211.679 369.985 197.376 353.183 196.304C335.31 195.588 321.011 209.891 322.083 227.412L322.441 234.563C322.441 237.781 319.938 240.642 316.721 240.642C313.504 240.642 310.644 238.139 310.287 234.563L309.929 228.485C308.857 205.243 326.015 185.219 349.251 184.146C373.917 183.074 395.008 202.74 396.08 227.412L396.438 234.563C396.795 237.781 394.293 240.642 391.075 240.642Z" fill="#3BBABB"/>
</g>
<path opacity="0.4" d="M430.398 906.787H135.125L109.744 391.178H405.017L430.398 906.787Z" fill="#3BBABB"/>
<path opacity="0.3" d="M406.089 415.85H110.817L109.744 391.178H405.017L406.089 415.85Z" fill="#3BBABB"/>
<path opacity="0.3" d="M430.398 906.786H135.125L134.052 882.114H429.325L430.398 906.786Z" fill="#3BBABB"/>
<path d="M201.257 537.066L190.533 531.702C188.746 527.054 186.958 522.763 184.456 518.472L187.316 507.388L164.08 485.219L152.998 488.794C148.709 486.649 144.062 484.861 139.415 483.431L133.337 473.062H102.237L97.2327 483.431C92.5855 484.861 88.2959 486.649 84.3637 488.794L72.9245 485.219L51.8336 507.388L55.7658 518.472C53.621 522.763 52.1911 527.054 50.7612 531.702L40.752 537.066L42.8968 568.532L53.621 573.895C55.4083 578.543 57.1957 582.834 59.698 587.125L56.8382 598.209L80.074 620.379L91.1557 616.803C95.4453 618.948 100.092 620.736 104.74 622.166L110.817 632.536H141.917L146.921 622.166C151.569 620.736 155.858 618.948 159.79 616.803L171.23 620.379L192.321 598.209L188.388 587.125C190.533 582.834 191.963 578.543 193.393 573.895L203.402 568.532L201.257 537.066ZM124.758 609.652C93.658 609.652 66.8475 584.264 65.4176 553.156C63.9877 521.69 87.9384 496.661 119.396 496.661C150.496 496.661 177.307 522.048 178.737 553.156C180.166 584.264 156.216 609.652 124.758 609.652Z" fill="#3BBABB"/>
<path opacity="0.6" d="M119.753 504.17C92.943 504.17 72.2096 525.981 73.282 552.799C74.7119 579.616 97.5901 601.428 124.401 601.428C151.211 601.428 171.945 579.616 170.872 552.799C169.442 525.981 146.564 504.17 119.753 504.17Z" fill="white"/>
<path d="M433.615 585.694H265.96C258.81 585.694 253.448 591.415 253.806 598.567L258.095 684.74C258.453 691.891 264.53 697.612 271.679 697.612H372.487L374.274 734.799L409.664 697.612H439.334C446.484 697.612 451.846 691.891 451.488 684.74L447.199 598.567C446.484 591.415 440.407 585.694 433.615 585.694Z" fill="#3BBABB"/>
<path d="M207.334 728.721H321.726C326.373 728.721 330.663 732.654 331.02 737.302L333.88 795.943C334.237 800.591 330.305 804.525 325.658 804.525H256.666L258.096 829.912L231.285 804.525H210.909C206.262 804.525 201.972 800.591 201.615 795.943L198.755 737.302C198.755 732.654 202.33 728.721 207.334 728.721Z" fill="white"/>
<path d="M1197.89 518.47L1181.09 517.755L1188.6 549.936C1188.6 549.936 1197.89 543.857 1205.04 535.633C1207.9 532.057 1207.54 527.052 1204.33 524.191L1197.89 518.47Z" fill="#FF8B7B"/>
<path d="M1161.07 535.276L1168.94 561.378L1188.6 549.936L1180.73 517.755L1161.07 535.276Z" fill="#FF8B7B"/>
<path d="M1069.56 354.705L1061.34 364.001C1058.48 367.219 1055.98 370.438 1053.12 373.656C1047.75 380.449 1042.39 386.886 1037.39 393.679C1027.38 407.267 1018.08 421.212 1010.93 435.515C1010.22 437.302 1009.15 439.09 1008.43 440.878L1007.36 443.381C1007.36 443.381 1007.36 443.023 1007.36 443.381C1007 443.739 1007 445.884 1007.72 448.744C1009.15 454.465 1012.36 461.617 1016.3 468.768C1024.52 482.713 1034.88 497.016 1045.25 510.603L1031.67 524.906C1016.65 513.464 1003.07 501.307 990.915 485.931C984.838 478.065 979.119 470.198 974.829 458.756C972.684 453.035 970.897 446.241 971.969 437.66C972.327 435.515 972.684 433.369 973.399 431.224L974.829 427.648C975.544 425.145 976.616 423 977.331 420.497C984.838 402.261 994.49 385.813 1005.21 370.438C1010.58 362.929 1015.94 355.42 1022.02 347.911C1024.88 344.335 1028.09 340.76 1030.95 337.184C1034.17 333.608 1037.03 330.39 1040.6 326.457L1069.56 354.705Z" fill="#FF8B7B"/>
<path d="M1066.7 522.046L1051.69 552.081L1036.67 539.209L1048.83 517.755L1066.7 522.046Z" fill="#FF8B7B"/>
<path d="M1216.48 325.741C1225.77 342.189 1234.71 358.995 1242.93 376.158C1251.51 393.321 1259.38 410.484 1266.88 428.005L1267.6 429.435L1268.31 431.581C1268.67 433.011 1269.03 434.441 1269.39 435.514C1269.74 436.587 1269.74 438.017 1269.74 439.089C1269.74 440.52 1269.74 441.235 1269.74 442.308C1269.74 444.453 1269.39 446.598 1269.03 448.386C1268.67 450.532 1268.31 451.962 1267.6 453.75C1265.45 460.186 1262.95 465.192 1260.09 470.198C1257.23 474.846 1254.37 479.137 1251.16 483.428C1247.94 487.361 1244.72 491.294 1241.5 495.227C1228.28 510.245 1214.34 523.117 1198.61 535.275L1185.02 520.972C1196.46 506.669 1207.9 491.652 1217.55 476.991C1222.56 469.483 1226.85 461.974 1230.42 454.822C1231.85 451.247 1233.28 447.671 1233.64 445.168C1233.64 444.453 1234 443.738 1233.64 443.38C1233.64 443.023 1233.64 442.665 1233.64 442.308C1233.64 442.308 1233.64 441.95 1233.64 442.308C1233.64 442.308 1233.64 442.308 1233.64 442.665V443.023V443.38C1233.64 443.38 1233.64 443.738 1233.64 443.38C1225.06 426.932 1216.12 410.484 1207.19 394.394C1198.25 377.946 1189.31 361.498 1180.73 345.05L1216.48 325.741Z" fill="#FF8B7B"/>
<path d="M1081 224.193C1081.36 226.338 1080.64 228.126 1079.21 228.484C1077.78 228.841 1076.35 227.411 1075.99 225.265C1075.64 223.12 1076.35 221.332 1077.78 220.975C1079.21 220.617 1080.64 222.047 1081 224.193Z" fill="#263238"/>
<path d="M1081 228.126C1081 228.126 1078.85 241.356 1074.92 248.507C1079.21 251.01 1085.29 247.792 1085.29 247.792L1081 228.126Z" fill="#FF5652"/>
<path d="M1078.85 244.217C1075.99 244.217 1073.49 242.071 1071.35 238.138C1069.2 234.205 1067.77 229.199 1067.41 223.478C1067.06 217.757 1067.77 212.393 1069.2 208.46C1070.63 204.169 1073.13 201.667 1075.99 201.309C1078.85 200.951 1081.71 203.097 1083.86 207.388C1086 211.321 1087.43 216.327 1087.79 222.048C1088.51 234.205 1084.93 243.859 1079.21 244.217H1078.85ZM1076.35 203.097C1074.21 203.097 1072.06 205.242 1070.63 209.175C1069.2 213.109 1068.49 218.115 1068.84 223.478C1069.2 228.841 1070.63 233.847 1072.42 237.423C1074.21 240.641 1076.35 242.787 1078.5 242.429C1083.14 242.071 1086.36 232.775 1085.29 222.048C1084.93 216.684 1083.5 211.678 1081.71 208.103C1080.64 204.885 1078.5 203.097 1076.35 203.097Z" fill="#263238"/>
<path d="M1075.64 211.32C1075.99 211.32 1075.99 211.32 1076.35 210.962C1076.35 210.962 1080.28 208.459 1085.29 210.247C1086 210.605 1086.72 210.247 1087.08 209.532C1087.43 208.817 1087.08 208.102 1086.36 207.744C1079.93 205.241 1075.28 208.459 1074.92 208.459C1074.21 208.817 1074.21 209.532 1074.56 210.247C1074.92 211.32 1075.28 211.32 1075.64 211.32Z" fill="#263238"/>
<path d="M1152.49 238.494C1151.78 259.948 1143.91 286.408 1156.78 298.923C1156.78 298.923 1150.71 318.589 1114.96 318.589C1075.64 318.589 1097.08 298.923 1097.08 298.923C1118.53 293.917 1118.89 277.826 1115.67 262.809L1152.49 238.494Z" fill="#FF8B7B"/>
<path d="M1166.08 306.074C1169.29 299.996 1172.15 290.341 1166.08 288.196C1159.29 285.693 1123.9 279.614 1096.73 288.196C1101.73 298.208 1097.08 307.505 1097.08 307.505L1166.08 306.074Z" fill="#263238"/>
<path d="M1212.91 1203.21C1210.05 1203.21 1207.54 1202.85 1206.47 1201.42C1206.11 1200.7 1205.76 1199.99 1206.47 1198.56C1206.83 1197.84 1207.54 1197.13 1208.62 1197.13C1212.55 1196.41 1219.34 1201.06 1219.7 1201.42C1220.06 1201.42 1220.06 1201.78 1220.06 1202.13C1220.06 1202.49 1219.7 1202.49 1219.7 1202.49C1218.63 1202.49 1215.77 1203.21 1212.91 1203.21ZM1210.05 1198.2C1209.69 1198.2 1209.69 1198.2 1209.33 1198.2C1208.62 1198.2 1208.26 1198.56 1208.26 1198.92C1207.54 1199.99 1207.9 1200.35 1207.9 1200.35C1208.97 1201.78 1214.34 1201.78 1218.27 1201.06C1216.12 1199.99 1212.19 1198.2 1210.05 1198.2Z" fill="white"/>
<path d="M1219.7 1202.49C1216.84 1201.06 1211.83 1195.34 1212.19 1192.48C1212.19 1191.77 1212.55 1191.05 1214.34 1190.69C1215.41 1190.69 1216.12 1190.69 1216.84 1191.41C1219.7 1193.91 1220.06 1201.42 1220.06 1201.78C1220.41 1201.78 1220.41 1202.14 1219.7 1202.49C1220.06 1202.49 1220.06 1202.49 1219.7 1202.49ZM1215.05 1191.77C1214.69 1191.77 1214.69 1191.77 1215.05 1191.77C1213.98 1191.77 1213.98 1192.12 1213.98 1192.48C1213.62 1194.27 1216.84 1198.56 1219.34 1200.71C1218.98 1198.56 1218.63 1193.91 1216.48 1192.48C1215.77 1191.77 1215.41 1191.77 1215.05 1191.77Z" fill="white"/>
<path d="M1055.26 1203.21C1052.04 1203.21 1048.83 1202.85 1047.75 1201.06C1047.4 1200.71 1047.04 1199.63 1047.75 1198.2C1050.61 1193.55 1062.05 1200.35 1063.48 1201.06C1063.84 1201.06 1063.84 1201.42 1063.84 1201.78C1063.84 1202.14 1063.48 1202.14 1063.48 1202.14C1061.69 1202.85 1058.48 1203.21 1055.26 1203.21ZM1051.33 1197.84C1050.26 1197.84 1049.18 1198.2 1048.83 1198.92C1048.47 1199.63 1048.47 1199.99 1048.83 1200.35C1049.9 1202.14 1056.69 1202.14 1061.69 1201.42C1058.84 1199.99 1054.19 1197.84 1051.33 1197.84Z" fill="white"/>
<path d="M1063.48 1202.49C1063.12 1202.49 1063.12 1202.49 1063.48 1202.49C1059.91 1201.06 1054.19 1195.34 1054.55 1192.48C1054.55 1191.77 1055.26 1190.69 1057.05 1190.69C1058.48 1190.69 1059.55 1191.05 1060.62 1191.77C1063.84 1194.63 1064.2 1201.42 1064.2 1201.78C1063.84 1201.78 1063.84 1202.14 1063.48 1202.49ZM1057.41 1191.77H1057.05C1055.98 1191.77 1055.98 1192.48 1055.62 1192.48C1055.26 1194.27 1059.19 1198.56 1062.41 1200.71C1062.05 1198.56 1061.34 1194.27 1059.19 1192.48C1058.84 1192.12 1058.12 1191.77 1057.41 1191.77Z" fill="white"/>
<path d="M1092.08 1201.78H1065.98L1065.63 1140.99H1092.08V1201.78Z" fill="#FF8B7B"/>
<path d="M1249.73 1201.78H1223.63L1212.91 1140.99H1239L1249.73 1201.78Z" fill="#FF8B7B"/>
<path d="M1221.84 1198.56H1251.51C1252.59 1198.56 1253.66 1199.27 1253.66 1200.35L1257.95 1223.59C1258.31 1226.09 1256.52 1228.24 1254.02 1228.24C1243.65 1228.24 1238.64 1227.52 1225.78 1227.52C1217.91 1227.52 1201.47 1228.24 1190.39 1228.24C1179.66 1228.24 1178.23 1217.51 1182.88 1216.44C1203.25 1212.15 1211.12 1206.07 1217.91 1199.99C1218.63 1199.27 1220.41 1198.56 1221.84 1198.56Z" fill="#263238"/>
<path d="M1066.34 1198.56H1094.94C1096.01 1198.56 1097.08 1199.27 1097.08 1200.35L1101.37 1223.59C1101.73 1226.09 1099.94 1228.24 1097.44 1228.24C1087.08 1228.24 1072.06 1227.52 1059.19 1227.52C1043.82 1227.52 1030.95 1228.24 1013.08 1228.24C1002.35 1228.24 999.852 1217.51 1004.14 1216.44C1024.88 1211.79 1041.68 1211.43 1059.91 1200.35C1061.69 1199.63 1063.84 1198.56 1066.34 1198.56Z" fill="#263238"/>
<path d="M1206.83 305.001C1231.14 310.722 1256.88 377.945 1256.88 377.945L1206.11 411.913C1206.11 411.913 1188.24 385.811 1175.73 356.491C1162.14 325.74 1181.81 299.28 1206.83 305.001Z" fill="#3BBABB"/>
<path opacity="0.3" d="M1206.83 305.001C1231.14 310.722 1256.88 377.945 1256.88 377.945L1206.11 411.913C1206.11 411.913 1188.24 385.811 1175.73 356.491C1162.14 325.74 1181.81 299.28 1206.83 305.001Z" fill="#FAFAFA"/>
<path opacity="0.2" d="M1187.53 347.911L1208.62 410.127L1206.11 411.558C1206.11 411.558 1196.46 397.255 1186.45 378.304L1187.53 347.911Z" fill="black"/>
<path d="M1043.11 422.642C1043.46 451.962 1044.89 488.434 1049.54 533.845H1190.03C1191.82 512.391 1182.16 406.909 1207.19 305.36C1207.19 305.36 1183.24 300.355 1160.36 299.282C1142.48 298.567 1116.39 297.852 1100.66 299.282C1079.93 301.07 1059.91 306.433 1059.91 306.433C1059.91 306.433 1047.75 319.305 1044.18 380.449C1043.46 392.606 1043.11 406.551 1043.11 422.642Z" fill="#3BBABB"/>
<path opacity="0.3" d="M1043.11 422.642C1043.46 451.962 1044.89 488.434 1049.54 533.845H1190.03C1191.82 512.391 1182.16 406.909 1207.19 305.36C1207.19 305.36 1183.24 300.355 1160.36 299.282C1142.48 298.567 1116.39 297.852 1100.66 299.282C1079.93 301.07 1059.91 306.433 1059.91 306.433C1059.91 306.433 1047.75 319.305 1044.18 380.449C1043.46 392.606 1043.11 406.551 1043.11 422.642Z" fill="#FAFAFA"/>
<path opacity="0.2" d="M1043.11 422.64C1051.69 407.265 1067.06 375.799 1064.91 358.278L1044.18 380.805C1043.46 392.605 1043.11 406.55 1043.11 422.64Z" fill="black"/>
<path d="M1087.43 330.389C1089.58 355.419 1032.74 415.49 1032.74 415.49L987.341 378.303C987.341 378.303 1005.93 345.765 1029.88 322.88C1056.33 297.136 1084.93 302.142 1087.43 330.389Z" fill="#3BBABB"/>
<path opacity="0.3" d="M1087.43 330.389C1089.58 355.419 1032.74 415.49 1032.74 415.49L987.341 378.303C987.341 378.303 1005.93 345.765 1029.88 322.88C1056.33 297.136 1084.93 302.142 1087.43 330.389Z" fill="#FAFAFA"/>
<path opacity="0.2" d="M1065.63 1140.99L1065.98 1172.1H1092.08V1140.99H1065.63Z" fill="black"/>
<path opacity="0.2" d="M1239 1140.99H1212.91L1218.27 1172.1H1244.72L1239 1140.99Z" fill="black"/>
<path d="M1148.56 202.381C1152.49 228.126 1156.07 243.143 1146.06 259.591C1131.04 284.263 1097.44 280.33 1086 256.373C1075.64 234.919 1071.35 196.302 1093.87 179.854C1116.03 163.406 1144.99 176.636 1148.56 202.381Z" fill="#FF8B7B"/>
<path d="M1104.95 195.23C1022.37 193.084 1089.94 143.383 1089.94 143.383C1076.35 167.34 1115.32 165.194 1124.97 154.467C1136.76 141.237 1158.57 159.473 1156.78 173.776C1169.29 172.346 1179.3 181.642 1174.66 211.678C1170.01 241.713 1160 250.295 1155 257.446C1149.99 264.955 1150.35 257.804 1133.19 261.022C1121.39 263.167 1101.73 237.78 1099.59 222.762C1097.08 206.314 1104.95 195.23 1104.95 195.23Z" fill="#263238"/>
<path d="M1147.13 178.067C1147.13 178.067 1168.58 169.128 1154.28 146.602C1174.3 156.971 1171.44 175.922 1147.13 178.067Z" fill="#263238"/>
<path d="M1116.39 218.471C1116.39 225.264 1113.53 232.058 1109.95 236.706C1104.59 243.5 1098.51 240.282 1097.08 232.416C1095.65 225.622 1097.08 213.822 1103.88 209.531C1110.31 205.598 1116.39 210.604 1116.39 218.471Z" fill="#FF8B7B"/>
<path d="M1099.23 533.485C1099.23 533.485 1121.39 734.08 1134.62 809.526C1149.28 891.766 1206.11 1166.38 1206.11 1166.38H1254.37C1254.37 1166.38 1220.06 898.56 1213.26 817.035C1205.76 728.359 1190.03 533.485 1190.03 533.485H1099.23Z" fill="#263238"/>
<path d="M1199.32 1148.5C1198.96 1148.5 1203.61 1167.09 1203.61 1167.09H1257.59L1257.23 1150.64L1199.32 1148.5Z" fill="#3BBABB"/>
<path opacity="0.2" d="M1115.32 605C1149.63 611.793 1141.05 740.159 1134.26 806.309C1126.04 759.468 1114.96 669.719 1107.45 605.715C1109.95 605 1112.46 604.642 1115.32 605Z" fill="black"/>
<path d="M1049.54 533.485C1049.54 533.485 1038.46 729.789 1038.1 809.884C1037.74 893.196 1056.33 1166.02 1056.33 1166.02H1100.66C1100.66 1166.02 1112.81 898.202 1117.82 816.32C1123.54 727.286 1141.77 533.485 1141.77 533.485H1049.54V533.485Z" fill="#263238"/>
<path d="M1038.46 508.456L1050.97 509.529C1055.26 509.886 1058.12 514.177 1057.05 518.468L1052.04 535.631C1050.26 541.71 1042.75 544.213 1037.74 540.279C1032.74 536.346 1026.31 526.692 1024.52 518.11L1038.46 508.456Z" fill="#FF8B7B"/>
<path opacity="0.2" d="M1066.7 1134.2C1066.34 1134.2 1066.34 1133.84 1066.34 1133.84C1061.34 1058.39 1049.9 875.676 1050.26 810.242C1050.61 743.02 1058.48 593.2 1060.98 548.861C1060.98 548.504 1061.34 548.504 1061.34 548.504C1061.69 548.504 1061.69 548.861 1061.69 548.861C1059.19 593.2 1051.33 743.377 1050.97 810.242C1050.61 875.676 1062.05 1058.39 1067.06 1133.84C1067.41 1133.84 1067.06 1134.2 1066.7 1134.2Z" fill="#FAFAFA"/>
<path d="M1048.47 1148.5C1048.11 1148.5 1050.26 1167.09 1050.26 1167.09H1104.23L1106.38 1150.64L1048.47 1148.5Z" fill="#3BBABB"/>
</svg>
