<svg width="1119" height="998" viewBox="0 0 1119 998" fill="none" xmlns="http://www.w3.org/2000/svg">
<path d="M937.643 841.935H1069.51V479.839H937.643V841.935Z" fill="#F0F0F0"/>
<path d="M362.601 867.747L1044.16 867.747V842.068L362.601 842.068V867.747Z" fill="#F0F0F0"/>
<path d="M937.79 480.101H337.316V842.197H937.79V480.101Z" fill="#F5F5F5"/>
<path d="M940.099 504.625H337.316V637.057H940.099V504.625Z" fill="#F0F0F0"/>
<path d="M940.099 661.293H337.316V793.725H940.099V661.293Z" fill="#F0F0F0"/>
<path d="M937.775 636.911H960.57V504.479H937.775V636.911Z" fill="#E6E6E6"/>
<path d="M937.775 793.588H960.57V661.156H937.775V793.588Z" fill="#E6E6E6"/>
<path d="M319.506 480.148L937.581 480.148V457.932L319.506 457.932V480.148Z" fill="#F0F0F0"/>
<path d="M1087.55 457.597H937.502V479.813H1087.55V457.597Z" fill="#E6E6E6"/>
<path d="M785.135 389.633L1095.04 389.633V0.127136L785.135 0.127136V389.633Z" fill="#F0F0F0"/>
<path d="M716.655 389.633L1083.11 389.633V0.127136L716.655 0.127136V389.633Z" fill="#F5F5F5"/>
<path d="M747.087 30.4493V358.788H1052.08V30.4493H747.087Z" fill="white"/>
<path d="M933.462 230.241L991.75 203.12V186.097L933.462 158.976V179.461L968.954 194.752L933.462 210.044V230.241Z" fill="#E6E6E6"/>
<path d="M895.662 151.475H884.986L903.741 238.32H914.418L895.662 151.475Z" fill="#E6E6E6"/>
<path d="M865.941 210.044L830.45 194.752L865.941 179.461V158.976L807.654 186.097V203.12L865.941 230.241V210.044Z" fill="#E6E6E6"/>
<path d="M176.443 867.741H196.642L196.642 206.447H176.443L176.443 867.741Z" fill="#F0F0F0"/>
<path d="M171.977 862.972L171.4 860.087C171.688 860.087 176.882 858.933 180.922 851.72C186.116 842.487 189.29 822.579 174.862 780.743C152.355 716.403 165.628 664.469 192.752 560.889C197.369 543.001 202.852 522.516 208.334 500.299C229.11 417.493 209.777 366.425 194.484 325.166C182.653 293.14 173.131 267.75 185.25 238.609L187.847 239.763C176.305 268.039 185.539 292.852 197.081 324.301C212.662 365.848 231.995 417.782 210.931 501.165C205.449 523.381 199.966 543.578 195.349 561.755C168.514 664.757 155.241 716.403 177.459 779.878C192.464 822.868 189.001 843.641 183.23 853.451C178.902 861.53 172.265 862.972 171.977 862.972Z" fill="#F0F0F0"/>
<path d="M149.758 867.589H223.339L202.852 855.471H170.245L149.758 867.589Z" fill="#F0F0F0"/>
<path d="M40.9746 290.543H331.834L299.805 46.1641H73.0037L40.9746 290.543Z" fill="#F5F5F5"/>
<path d="M472.647 330.936H627.887L607.4 457.597H493.134L472.647 330.936Z" fill="#F0F0F0"/>
<path d="M534.974 372.195C577.391 356.903 609.708 333.821 573.351 287.369C536.993 240.917 480.726 240.917 442.926 261.691C394.738 287.946 404.26 364.116 404.26 364.116C404.26 364.116 492.557 387.486 534.974 372.195Z" fill="#E0E0E0"/>
<path d="M576.236 329.781C543.919 307.854 520.835 282.175 558.346 255.342C595.858 228.51 642.315 242.07 670.304 267.172C705.796 299.198 685.309 355.171 685.309 355.171C685.309 355.171 608.554 351.709 576.236 329.781Z" fill="#E6E6E6"/>
<path d="M519.104 273.808C556.904 271.5 588.933 261.69 570.754 220.431C552.864 179.461 507.273 167.92 471.781 174.845C426.479 183.789 415.802 240.628 415.802 240.628C415.802 240.628 481.303 276.116 519.104 273.808Z" fill="#F0F0F0"/>
<path d="M566.714 249.572C535.262 239.473 510.447 224.182 534.396 193.31C558.346 162.438 599.32 162.726 627.887 176.287C664.244 193.598 661.07 244.09 661.07 244.09C661.07 244.09 598.166 259.67 566.714 249.572Z" fill="#EBEBEB"/>
<path d="M507.561 197.061C539.013 207.448 567.869 209.756 566.714 170.517C565.56 131.566 532.377 107.619 501.213 101.56C461.682 94.0583 434.558 136.76 434.558 136.76C434.558 136.76 476.109 186.674 507.561 197.061Z" fill="#F5F5F5"/>
<path d="M587.49 180.327C564.983 181.77 545.362 178.596 552.864 152.918C560.366 127.239 586.336 117.141 607.689 118.583C635.101 120.315 645.777 152.918 645.777 152.918C645.777 152.918 609.997 178.596 587.49 180.327Z" fill="#FAFAFA"/>
<path d="M559.5 997.999C868.503 997.999 1119 983.402 1119 965.396C1119 947.39 868.503 932.793 559.5 932.793C250.497 932.793 0 947.39 0 965.396C0 983.402 250.497 997.999 559.5 997.999Z" fill="#F5F5F5"/>
<path d="M1048.02 488.758H67.5208V523.958H1048.02V488.758Z" fill="#3BBABB"/>
<path opacity="0.3" d="M329.813 488.758H67.5208V523.958H329.813V488.758Z" fill="white"/>
<path d="M334.142 523.958H311.346L323.177 964.821H334.142H345.107L356.937 523.958H334.142Z" fill="#3BBABB"/>
<path opacity="0.3" d="M323.177 964.82H334.142V533.479L311.635 537.518L323.177 964.82Z" fill="white"/>
<path d="M117.729 523.958H94.9331L106.764 964.821H117.729H128.694L140.524 523.958H117.729Z" fill="#3BBABB"/>
<path opacity="0.3" d="M106.764 964.82H117.729V533.479L95.2218 537.518L106.764 964.82Z" fill="white"/>
<path d="M997.52 523.958H974.724L986.844 964.821H997.52H1008.48L1020.6 523.958H997.52Z" fill="#3BBABB"/>
<path opacity="0.3" d="M986.844 964.82H997.52V533.479L975.302 537.518L986.844 964.82Z" fill="white"/>
<path d="M781.395 523.958H758.6L770.431 964.821H781.395H792.072L804.191 523.958H781.395Z" fill="#3BBABB"/>
<path opacity="0.3" d="M770.431 964.82H781.396V533.479L758.889 537.518L770.431 964.82Z" fill="white"/>
<path d="M532.953 300.352H299.804C291.436 300.352 285.954 307.276 287.685 315.643L318.848 463.655C320.58 472.023 328.948 478.947 337.316 478.947H570.465C578.833 478.947 584.315 472.023 582.584 463.655L551.42 315.643C549.4 307.276 541.321 300.352 532.953 300.352Z" fill="#263238"/>
<path d="M339.336 470.579C333.853 470.579 328.082 465.674 326.928 460.192L295.764 311.892C295.187 309.583 295.764 307.564 296.919 306.121C298.073 304.679 299.804 304.102 301.824 304.102H534.973C540.455 304.102 546.226 309.006 547.381 314.488L578.544 462.501C579.121 464.809 578.544 466.828 577.39 468.271C576.236 469.714 574.504 470.291 572.484 470.291H339.336V470.579Z" fill="white"/>
<path opacity="0.4" d="M515.352 458.751L485.92 318.24C485.054 314.778 487.939 311.315 491.402 311.315H529.202C531.799 311.315 534.107 313.335 534.685 315.932L564.117 456.442C564.982 459.905 562.097 463.367 558.634 463.367H520.834C518.237 463.367 515.64 461.347 515.352 458.751Z" fill="#3BBABB"/>
<path d="M315.097 323.722L313.943 317.663H360.688L361.842 323.722H315.097Z" fill="#3BBABB"/>
<path d="M336.738 338.726L335.295 332.667H417.244L418.687 338.726H336.738Z" fill="#EBEBEB"/>
<path d="M341.067 354.017L339.624 347.67H431.672L432.826 354.017H341.067Z" fill="#EBEBEB"/>
<path d="M345.395 369.021L343.952 362.962H418.11L419.264 369.021H345.395Z" fill="#EBEBEB"/>
<path d="M329.236 393.544L328.082 387.485H357.514L358.957 393.544H329.236Z" fill="#3BBABB"/>
<path d="M350.878 408.548L349.724 402.489H385.792L386.947 408.548H350.878Z" fill="#EBEBEB"/>
<path d="M395.603 408.548L394.16 402.489H430.229L431.672 408.548H395.603Z" fill="#EBEBEB"/>
<path d="M355.206 423.84L354.052 417.492H475.82L476.974 423.84H355.206Z" fill="#EBEBEB"/>
<path d="M359.534 438.843L358.38 432.784H451.005L452.448 438.843H359.534Z" fill="#EBEBEB"/>
<path d="M641.737 478.081H334.719C326.351 478.081 320.868 482.697 322.6 488.756H659.916C658.473 482.986 650.105 478.081 641.737 478.081Z" fill="#263238"/>
<path opacity="0.1" d="M234.015 263.131L204.582 122.621C203.717 119.159 206.602 115.696 210.065 115.696H448.408C451.005 115.696 453.313 117.716 453.89 120.313L483.323 260.823C484.188 264.285 481.303 267.748 477.84 267.748H239.497C236.9 267.459 234.592 265.728 234.015 263.131Z" fill="#3BBABB"/>
<path d="M318.849 120.314H268.641L267.487 115.121H317.694L318.849 120.314Z" fill="#3BBABB"/>
<path opacity="0.4" d="M310.481 128.971H290.571L289.417 123.489H309.327L310.481 128.971Z" fill="#3BBABB"/>
<path opacity="0.4" d="M343.952 128.971H313.077L311.923 123.489H342.798L343.952 128.971Z" fill="#3BBABB"/>
<path opacity="0.4" d="M357.514 137.626H292.302L291.148 132.145H356.36L357.514 137.626Z" fill="#3BBABB"/>
<path opacity="0.4" d="M349.147 146.283H294.033L292.879 140.801H347.992L349.147 146.283Z" fill="#3BBABB"/>
<path opacity="0.4" d="M385.792 237.453H350.589L351.744 242.646H386.947L385.792 237.453Z" fill="#3BBABB"/>
<path d="M341.933 225.624H290.571L289.417 220.143H340.779L341.933 225.624Z" fill="#3BBABB"/>
<path opacity="0.4" d="M362.709 245.822H314.809L315.963 251.304H363.863L362.709 245.822Z" fill="#3BBABB"/>
<path opacity="0.4" d="M348.281 237.454H313.078L314.232 242.647H349.435L348.281 237.454Z" fill="#3BBABB"/>
<path opacity="0.4" d="M381.465 228.798H311.347L312.501 234.28H382.619L381.465 228.798Z" fill="#3BBABB"/>
<path d="M317.117 80.209H260.273L259.119 75.0156H315.963L317.117 80.209Z" fill="#3BBABB"/>
<path opacity="0.4" d="M344.819 100.695H282.492L283.646 106.177H345.973L344.819 100.695Z" fill="#3BBABB"/>
<path opacity="0.4" d="M332.411 92.0391H280.76L281.914 97.521H333.565L332.411 92.0391Z" fill="#3BBABB"/>
<path opacity="0.4" d="M335.873 83.6709H279.029L279.894 88.8643H337.027L335.873 83.6709Z" fill="#3BBABB"/>
<path d="M316.252 160.129H277.009L275.855 154.647H315.098L316.252 160.129Z" fill="#3BBABB"/>
<path opacity="0.4" d="M378.002 180.327H301.247L302.402 185.809H379.156L378.002 180.327Z" fill="#3BBABB"/>
<path opacity="0.4" d="M331.256 171.959H299.516L300.67 177.152H332.411L331.256 171.959Z" fill="#3BBABB"/>
<path opacity="0.4" d="M365.883 171.959H334.142L335.008 177.152H367.037L365.883 171.959Z" fill="#3BBABB"/>
<path opacity="0.4" d="M367.903 163.303H297.785L298.651 168.785H369.057L367.903 163.303Z" fill="#3BBABB"/>
<path opacity="0.4" d="M367.614 206.294H306.73L307.595 211.487H368.768L367.614 206.294Z" fill="#3BBABB"/>
<path opacity="0.4" d="M322.6 197.638H304.71L305.864 203.12H323.754L322.6 197.638Z" fill="#3BBABB"/>
<path opacity="0.4" d="M350.301 197.638H324.908L326.063 203.12H351.455L350.301 197.638Z" fill="#3BBABB"/>
<path opacity="0.4" d="M373.096 188.982H302.978L304.133 194.464H374.25L373.096 188.982Z" fill="#3BBABB"/>
<path opacity="0.4" d="M428.498 187.54H403.394L402.24 182.347H427.344L428.498 187.54Z" fill="#3BBABB"/>
<path opacity="0.4" d="M470.338 187.54H431.672L430.518 182.347H469.184L470.338 187.54Z" fill="#3BBABB"/>
<path opacity="0.4" d="M486.785 196.197H405.125L403.971 190.715H485.631L486.785 196.197Z" fill="#3BBABB"/>
<path opacity="0.4" d="M475.82 204.852H406.856L405.702 199.37H474.666L475.82 204.852Z" fill="#3BBABB"/>
<path opacity="0.4" d="M506.695 153.494H428.786L429.652 158.976H507.849L506.695 153.494Z" fill="#3BBABB"/>
<path opacity="0.4" d="M491.69 144.838H426.766L427.921 150.32H492.845L491.69 144.838Z" fill="#3BBABB"/>
<path d="M479.86 136.183H408.588L409.742 141.665H481.014L479.86 136.183Z" fill="#3BBABB"/>
<path opacity="0.4" d="M510.446 239.186H414.07L415.224 244.379H511.312L510.446 239.186Z" fill="#3BBABB"/>
<path opacity="0.4" d="M452.159 230.529H412.339L413.493 236.011H453.313L452.159 230.529Z" fill="#3BBABB"/>
<path opacity="0.4" d="M495.442 230.529H455.622L456.776 236.011H496.596L495.442 230.529Z" fill="#3BBABB"/>
<path opacity="0.4" d="M498.327 221.874H410.607L411.762 227.356H499.481L498.327 221.874Z" fill="#3BBABB"/>
<path opacity="0.4" d="M496.019 264.864H419.553L420.707 270.346H497.173L496.019 264.864Z" fill="#3BBABB"/>
<path opacity="0.4" d="M439.751 256.209H417.532L418.687 261.691H440.905L439.751 256.209Z" fill="#3BBABB"/>
<path opacity="0.4" d="M474.666 256.209H442.925L444.079 261.691H475.82L474.666 256.209Z" fill="#3BBABB"/>
<path opacity="0.4" d="M503.809 247.841H415.801L416.956 253.034H504.964L503.809 247.841Z" fill="#3BBABB"/>
<path opacity="0.4" d="M269.795 271.501H210.065L210.931 276.983H270.949L269.795 271.501Z" fill="#3BBABB"/>
<path opacity="0.4" d="M252.194 262.846H208.045L209.199 268.328H253.059L252.194 262.846Z" fill="#3BBABB"/>
<path opacity="0.4" d="M299.227 262.846H255.079L256.233 268.328H300.093L299.227 262.846Z" fill="#3BBABB"/>
<path opacity="0.4" d="M294.322 254.478H206.314L207.468 259.671H295.188L294.322 254.478Z" fill="#3BBABB"/>
<path d="M966.068 432.784H929.134L933.462 488.758H961.74L966.068 432.784Z" fill="#3BBABB"/>
<path opacity="0.4" d="M966.068 432.784H929.134L933.462 488.758H961.74L966.068 432.784Z" fill="white"/>
<path d="M158.703 393.833H212.085L193.906 488.757H140.524L158.703 393.833Z" fill="#263238"/>
<path d="M226.512 368.443H151.489L172.553 488.757H247.577L226.512 368.443Z" fill="#3BBABB"/>
<path d="M146.872 368.443H151.489L172.553 488.757H167.936L146.872 368.443Z" fill="#3BBABB"/>
<path opacity="0.3" d="M146.872 368.443H151.489L172.553 488.757H167.936L146.872 368.443Z" fill="black"/>
<path d="M183.23 475.774L166.782 381.139H215.836L232.283 475.774H183.23Z" fill="white"/>
<path opacity="0.6" d="M229.975 475.774L213.528 381.139H215.836L232.283 475.774H229.975Z" fill="#3BBABB"/>
<path d="M599.32 214.373C600.474 216.681 599.897 218.989 598.454 219.854C597.012 220.431 594.992 219.277 593.838 216.969C592.683 214.661 593.26 212.353 594.703 211.487C596.146 210.622 598.166 212.064 599.32 214.373Z" fill="#263238"/>
<path d="M600.186 218.989C600.186 218.989 601.052 234.858 598.166 243.802C603.937 245.822 610.285 240.628 610.285 240.628L600.186 218.989Z" fill="#FF5652"/>
<path d="M599.609 195.33C599.32 195.619 599.031 195.619 598.743 195.619C592.106 195.907 589.221 200.524 589.221 200.812C588.932 201.389 587.778 201.678 587.201 201.389C586.624 201.101 586.335 199.946 586.624 199.369C586.912 199.081 590.375 193.31 598.454 192.733C599.32 192.733 599.897 193.31 599.897 194.176C600.186 194.465 599.897 195.042 599.609 195.33Z" fill="#263238"/>
<path d="M684.154 210.909C693.099 241.781 702.91 265.729 715.317 279.289C715.317 279.289 715.606 303.525 674.055 315.066C628.464 327.761 646.065 298.62 646.065 298.62C669.149 285.637 666.841 266.306 649.528 259.092L684.154 210.909Z" fill="#FF8B7B"/>
<path d="M724.84 273.52C723.974 262.267 723.108 249.284 715.895 248.995C708.104 248.707 663.667 268.615 654.433 282.464C644.911 296.602 663.378 310.162 663.378 310.162L724.84 273.52Z" fill="#263238"/>
<path d="M633.946 448.077L595.569 446.923L596.146 478.949C596.146 478.949 629.618 475.487 631.06 466.831L633.946 448.077Z" fill="#FF8B7B"/>
<path d="M575.082 462.792L571.331 478.949H596.146L595.569 446.923L575.082 462.792Z" fill="#FF8B7B"/>
<path d="M788.032 314.491L787.167 322.858C786.878 325.454 786.59 328.051 786.301 330.648C785.724 335.841 784.858 341.035 783.993 346.228C782.261 356.615 779.953 367.002 777.356 377.389C774.759 387.775 771.585 398.162 767.834 408.838C765.814 414.031 763.794 419.513 761.197 424.706C758.6 430.188 756.003 435.382 752.541 440.864C751.675 442.306 750.809 443.749 749.944 444.903C749.078 446.345 747.924 447.788 747.058 449.231C745.904 450.673 745.038 452.116 743.596 453.559L741.576 455.578C740.999 456.155 740.421 457.021 739.556 457.886C732.919 464.522 725.994 468.562 719.646 471.447C706.661 477.217 695.119 479.237 683.865 480.391C678.094 480.968 672.612 481.257 667.13 481.545C661.647 481.834 656.165 481.545 650.971 481.257C645.488 480.968 640.294 480.391 635.1 479.814C629.618 479.237 624.713 478.372 618.942 477.217L619.807 447.211C638.274 443.46 657.607 439.709 674.343 434.228C678.383 432.785 682.423 431.342 686.174 429.611C689.637 428.169 693.099 426.437 695.408 424.706C697.716 422.975 699.447 421.244 699.736 420.667L700.601 419.224C700.89 418.936 701.179 418.07 701.756 417.493C702.044 416.916 702.621 416.051 702.91 415.474C703.198 414.608 703.775 414.031 704.064 413.165C706.95 406.818 710.124 398.739 712.432 390.372C714.74 382.005 717.049 373.061 718.78 363.828C720.8 354.884 722.243 345.363 723.974 336.13L726.282 321.992L728.302 308.432L788.032 314.491Z" fill="#3BBABB"/>
<path opacity="0.2" d="M788.032 314.491L787.167 322.858C786.878 325.454 786.59 328.051 786.301 330.648C785.724 335.841 784.858 341.035 783.993 346.228C782.261 356.615 779.953 367.002 777.356 377.389C774.759 387.775 771.585 398.162 767.834 408.838C765.814 414.031 763.794 419.513 761.197 424.706C758.6 430.188 756.003 435.382 752.541 440.864C751.675 442.306 750.809 443.749 749.944 444.903C749.078 446.345 747.924 447.788 747.058 449.231C745.904 450.673 745.038 452.116 743.596 453.559L741.576 455.578C740.999 456.155 740.421 457.021 739.556 457.886C732.919 464.522 725.994 468.562 719.646 471.447C706.661 477.217 695.119 479.237 683.865 480.391C678.094 480.968 672.612 481.257 667.13 481.545C661.647 481.834 656.165 481.545 650.971 481.257C645.488 480.968 640.294 480.391 635.1 479.814C629.618 479.237 624.713 478.372 618.942 477.217L619.807 447.211C638.274 443.46 657.607 439.709 674.343 434.228C678.383 432.785 682.423 431.342 686.174 429.611C689.637 428.169 693.099 426.437 695.408 424.706C697.716 422.975 699.447 421.244 699.736 420.667L700.601 419.224C700.89 418.936 701.179 418.07 701.756 417.493C702.044 416.916 702.621 416.051 702.91 415.474C703.198 414.608 703.775 414.031 704.064 413.165C706.95 406.818 710.124 398.739 712.432 390.372C714.74 382.005 717.049 373.061 718.78 363.828C720.8 354.884 722.243 345.363 723.974 336.13L726.282 321.992L728.302 308.432L788.032 314.491Z" fill="black"/>
<path d="M617.499 352.863C626.732 391.525 638.852 456.154 641.448 540.691H810.539C811.405 519.918 807.942 402.2 790.918 317.086C784.57 284.772 752.829 263.709 720.511 270.922C720.223 270.922 719.934 270.922 719.646 271.211C698.582 276.116 668.284 283.617 650.394 290.542C650.105 290.542 649.816 290.831 649.528 290.831C625.001 300.352 611.439 326.896 617.499 352.863Z" fill="#3BBABB"/>
<path opacity="0.2" d="M628.464 406.816C629.907 414.895 631.061 423.551 632.503 432.495C646.354 418.069 650.682 373.925 650.682 373.925L628.464 406.816Z" fill="black"/>
<path d="M488.228 450.095L450.139 446.633L448.985 478.659C448.985 478.659 468.607 485.006 484.477 468.561L488.228 450.095Z" fill="#FF8B7B"/>
<path d="M431.672 456.154L419.264 478.082L448.697 478.659L449.851 446.633L431.672 456.154Z" fill="#FF8B7B"/>
<path d="M680.98 338.149C678.383 343.343 676.075 347.67 673.189 352.287C670.592 356.903 667.995 361.52 665.11 365.847C659.628 374.792 654.145 383.736 648.085 392.391C636.255 409.991 623.559 427.014 608.554 443.171C601.052 451.539 592.972 459.329 583.45 467.119C582.296 467.984 580.853 469.138 579.699 470.004C578.545 470.87 577.39 471.735 575.371 472.889C573.639 474.043 571.908 474.909 570.177 476.063C568.445 476.929 566.714 477.794 564.983 478.66C558.058 481.545 551.421 483.565 545.073 484.719C532.377 487.027 520.257 486.738 509.004 485.584C503.233 484.719 497.75 483.853 492.268 482.699C489.671 482.122 486.786 481.256 484.189 480.391C481.303 479.525 478.995 478.66 475.821 477.506L480.726 447.788C498.905 445.191 518.526 442.306 531.799 435.958C535.262 434.516 538.148 432.785 540.167 431.053C541.322 430.188 542.187 429.322 542.764 428.745C543.053 428.457 543.919 427.591 544.496 427.014C545.073 426.437 545.938 425.86 546.516 424.995C552.287 419.513 558.058 412.588 563.829 405.663C575.082 391.237 586.047 375.369 596.435 358.923C601.629 350.844 606.823 342.477 611.728 334.11L619.23 321.703L626.444 309.297L680.98 338.149Z" fill="#3BBABB"/>
<path d="M634.523 940.295H603.071L587.201 867.299H618.653L634.523 940.295Z" fill="#FF8B7B"/>
<path d="M601.34 933.659H636.832C637.986 933.659 639.14 934.525 639.429 935.679L645.777 963.666C646.354 966.551 644.045 969.436 641.16 969.147C628.752 968.859 622.693 968.282 607.111 968.282C597.589 968.282 585.181 969.147 571.908 969.147C558.923 969.147 556.903 956.164 562.386 954.721C586.624 949.528 588.355 942.026 596.146 935.102C597.589 934.236 599.32 933.659 601.34 933.659Z" fill="#263238"/>
<g opacity="0.2">
<path opacity="0.2" d="M618.653 867.299H587.201L595.857 907.692L627.021 904.807L618.653 867.299Z" fill="black"/>
</g>
<path d="M674.055 173.69C685.308 202.831 693.676 219.276 685.886 240.627C674.344 272.653 633.369 275.827 613.459 250.437C595.569 227.644 579.987 183.788 602.494 159.552C625.001 135.893 662.802 144.549 674.055 173.69Z" fill="#FF8B7B"/>
<path d="M618.653 217.546C614.036 223.894 610.285 228.799 610.285 228.799C610.285 228.799 600.474 204.563 604.226 193.599C599.609 184.078 589.798 197.927 586.335 179.75C582.873 161.573 598.455 141.953 604.226 137.914C605.091 139.357 605.091 144.55 605.091 144.55C605.091 144.55 628.464 123.776 661.647 126.662C659.339 128.97 658.473 135.029 658.473 135.029C658.473 135.029 692.811 140.799 700.602 160.13C695.696 157.822 691.945 156.957 691.945 156.957C691.945 156.957 701.756 169.074 698.87 187.828C695.985 206.582 694.542 227.356 695.119 235.435C695.408 243.513 672.901 259.382 659.339 242.648C645.2 225.913 618.653 217.546 618.653 217.546Z" fill="#263238"/>
<path d="M632.792 211.199C634.812 218.412 633.658 225.913 631.349 231.684C627.598 240.051 620.096 238.32 616.345 230.818C612.882 223.894 610.862 211.487 616.922 205.428C622.693 199.369 630.484 203.12 632.792 211.199Z" fill="#FF8B7B"/>
<path d="M692.233 540.692C692.233 540.692 545.65 593.78 541.321 664.18C533.242 793.726 586.335 896.44 586.335 896.44L634.812 891.247C634.812 891.247 626.155 849.411 619.807 731.982C611.728 584.547 862.19 735.445 810.539 540.403L692.233 540.692Z" fill="#3BBABB"/>
<path opacity="0.5" d="M692.233 540.692C692.233 540.692 545.65 593.78 541.321 664.18C533.242 793.726 586.335 896.44 586.335 896.44L634.812 891.247C634.812 891.247 626.155 849.411 619.807 731.982C611.728 584.547 862.19 735.445 810.539 540.403L692.233 540.692Z" fill="white"/>
<path d="M572.773 878.551C572.485 878.551 580.564 900.19 580.564 900.19L641.16 894.131L637.986 874.512L572.773 878.551Z" fill="#3BBABB"/>
<path d="M498.039 944.047H466.587L457.353 870.762H488.805L498.039 944.047Z" fill="#FF8B7B"/>
<path d="M466.298 933.659H500.924C502.078 933.659 503.233 934.525 503.521 935.679L509.869 963.666C510.446 966.551 508.427 969.436 505.253 969.147C492.845 968.859 474.955 968.282 459.084 968.282C440.906 968.282 437.155 969.436 415.802 969.436C402.817 969.436 399.354 956.452 404.548 955.298C429.364 949.816 437.155 949.239 458.507 935.967C461.104 934.525 463.413 933.659 466.298 933.659Z" fill="#263238"/>
<path opacity="0.2" d="M457.353 870.762L462.258 910.578L493.71 908.558L488.805 870.762H457.353Z" fill="black"/>
<path d="M641.449 540.692C641.449 540.692 401.086 562.043 403.683 682.646C406.28 808.153 453.313 892.979 453.313 892.979H500.347C500.347 892.979 491.402 827.772 493.133 704.285C493.711 667.354 568.445 654.947 641.449 650.62C704.641 646.869 763.794 610.803 788.321 552.522L793.226 540.692H641.449Z" fill="#3BBABB"/>
<path opacity="0.5" d="M641.449 540.692C641.449 540.692 401.086 562.043 403.683 682.646C406.28 808.153 453.313 892.979 453.313 892.979H500.347C500.347 892.979 491.402 827.772 493.133 704.285C493.711 667.354 568.445 654.947 641.449 650.62C704.641 646.869 763.794 610.803 788.321 552.522L793.226 540.692H641.449Z" fill="white"/>
<path d="M442.349 880.283C442.06 880.283 450.428 901.923 450.428 901.923L506.984 897.883L503.81 878.264L442.349 880.283Z" fill="#3BBABB"/>
<path d="M704.641 405.086L674.055 522.515C666.264 552.521 662.224 583.393 662.224 614.553V669.373C662.224 683.222 672.323 694.474 685.02 694.474H841.414C853.822 694.474 864.21 683.222 864.21 669.373V614.842C864.21 583.681 868.249 552.521 876.04 522.803L902.875 418.935C906.915 403.066 896.239 387.197 880.946 387.197H726.282C716.472 386.909 707.527 394.411 704.641 405.086Z" fill="#263238"/>
<path d="M510.158 637.346L515.352 666.487C517.949 681.779 531.511 694.185 545.361 694.185H719.069C732.919 694.185 742.153 681.779 739.556 666.487L734.362 637.346C731.188 620.035 715.895 605.897 700.025 605.897H533.242C517.66 605.897 507.273 620.035 510.158 637.346Z" fill="#263238"/>
<path d="M736.093 723.615H644.911L635.966 694.475H744.75L736.093 723.615Z" fill="#3BBABB"/>
<path d="M706.661 723.614H674.055V941.16H706.661V723.614Z" fill="#3BBABB"/>
<path opacity="0.7" d="M706.661 941.16H674.055V728.808L706.661 732.27V941.16Z" fill="white"/>
<path opacity="0.7" d="M698.87 941.161H691.079V730.539L698.87 731.405V941.161Z" fill="white"/>
<path d="M765.237 974.918H615.768C611.728 974.918 609.997 969.724 613.459 967.416L637.121 950.105C648.374 941.737 662.225 937.121 676.364 937.121H704.642C718.78 937.121 732.631 941.737 743.884 950.105L767.546 967.416C771.008 969.724 769.277 974.918 765.237 974.918Z" fill="#3BBABB"/>
</svg>
